<svg width="24" height="24" viewBox="0 0 24 24" fill="none" xmlns="http://www.w3.org/2000/svg">
<path d="M12 12.2759C11.1865 12.2759 10.3914 12.0332 9.71499 11.5785C9.03863 11.1238 8.51147 10.4776 8.20017 9.72145C7.88888 8.96534 7.80743 8.13334 7.96613 7.33066C8.12482 6.52798 8.51654 5.79067 9.09174 5.21197C9.66694 4.63327 10.3998 4.23917 11.1976 4.07951C11.9954 3.91985 12.8224 4.00179 13.5739 4.31498C14.3255 4.62817 14.9678 5.15854 15.4198 5.83902C15.8717 6.5195 16.1129 7.31953 16.1129 8.13793C16.1129 9.23538 15.6796 10.2879 14.9083 11.0639C14.1369 11.8399 13.0908 12.2759 12 12.2759ZM12 5.65517C11.5119 5.65517 11.0348 5.80079 10.629 6.07359C10.2232 6.3464 9.90688 6.73416 9.7201 7.18782C9.53333 7.64149 9.48446 8.14069 9.57968 8.62229C9.67489 9.1039 9.90992 9.54629 10.255 9.89351C10.6002 10.2407 11.0399 10.4772 11.5186 10.573C11.9973 10.6688 12.4934 10.6196 12.9444 10.4317C13.3953 10.2438 13.7807 9.92557 14.0519 9.51728C14.323 9.10899 14.4677 8.62898 14.4677 8.13793C14.4677 7.47946 14.2077 6.84796 13.745 6.38236C13.2822 5.91675 12.6545 5.65517 12 5.65517ZM19.6774 20C19.4601 19.9971 19.2526 19.909 19.0989 19.7544C18.9453 19.5999 18.8577 19.391 18.8548 19.1724C18.8548 17.0207 17.6923 15.5862 12 15.5862C6.30774 15.5862 5.14516 17.0207 5.14516 19.1724C5.14516 19.3919 5.0585 19.6024 4.90423 19.7576C4.74997 19.9128 4.54074 20 4.32258 20C4.10442 20 3.89519 19.9128 3.74093 19.7576C3.58666 19.6024 3.5 19.3919 3.5 19.1724C3.5 13.931 9.45548 13.931 12 13.931C14.5445 13.931 20.5 13.931 20.5 19.1724C20.4972 19.391 20.4096 19.5999 20.2559 19.7544C20.1023 19.909 19.8947 19.9971 19.6774 20Z" fill="#949494"/>
</svg>
